HIERARCHY
ROOT Hips
{
	OFFSET 0.000000 83.214638 0.000000
	CHANNELS 6 Xposition Yposition Zposition Xrotation Yrotation Zrotation
	JOINT Pelvis
	{
		OFFSET 0.000000 0.000000 0.000000
		CHANNELS 3 Xrotation Yrotation Zrotation
		JOINT LeftUpLeg
		{
			OFFSET 8.479700 -4.795502 -0.379100
			CHANNELS 3 Xrotation Yrotation Zrotation
			JOINT LeftLeg
			{
				OFFSET 0.024144 -32.555107 0.112900
				CHANNELS 3 Xrotation Yrotation Zrotation
				JOINT LeftFoot
				{
					OFFSET -0.024144 -32.638630 -3.012600
					CHANNELS 3 Xrotation Yrotation Zrotation
					JOINT LeftToeBase
					{
						OFFSET 0.970200 -13.225400 11.864200
						CHANNELS 3 Xrotation Yrotation Zrotation
						End Site
						{
							OFFSET 0.000000 12.319262 0.000000
						}
					}
					JOINT LFootTongue
					{
						OFFSET 1.142400 -1.059800 6.665200
						CHANNELS 3 Xrotation Yrotation Zrotation
						End Site
						{
							OFFSET 0.000000 12.319262 0.000000
						}
					}
				}
				JOINT LeftPantLeg
				{
					OFFSET 0.918482 -16.533964 -2.284700
					CHANNELS 3 Xrotation Yrotation Zrotation
					End Site
					{
						OFFSET 0.350399 24.744368 0.000000
					}
				}
			}
		}
		JOINT RightUpLeg
		{
			OFFSET -8.479700 -4.795502 -0.379100
			CHANNELS 3 Xrotation Yrotation Zrotation
			JOINT RightLeg
			{
				OFFSET -0.023144 -32.555092 0.112900
				CHANNELS 3 Xrotation Yrotation Zrotation
				JOINT RightFoot
				{
					OFFSET 0.023144 -32.638641 -3.012700
					CHANNELS 3 Xrotation Yrotation Zrotation
					JOINT RightToeBase
					{
						OFFSET -0.970200 -13.225400 11.864200
						CHANNELS 3 Xrotation Yrotation Zrotation
						End Site
						{
							OFFSET 0.000000 12.319244 0.000000
						}
					}
					JOINT RFootTongue
					{
						OFFSET -1.142200 -1.059800 6.665200
						CHANNELS 3 Xrotation Yrotation Zrotation
						End Site
						{
							OFFSET 0.000000 12.319243 0.000000
						}
					}
				}
				JOINT RightPantLeg
				{
					OFFSET -0.919482 -16.533978 -2.284800
					CHANNELS 3 Xrotation Yrotation Zrotation
					End Site
					{
						OFFSET -0.350400 24.744419 0.000000
					}
				}
			}
		}
	}
	JOINT Spine
	{
		OFFSET 0.000000 7.722000 1.166200
		CHANNELS 3 Xrotation Yrotation Zrotation
		JOINT Spine1
		{
			OFFSET 0.000000 12.024101 0.248800
			CHANNELS 3 Xrotation Yrotation Zrotation
			JOINT Spine2
			{
				OFFSET 0.000000 11.502998 -0.491200
				CHANNELS 3 Xrotation Yrotation Zrotation
				JOINT Neck
				{
					OFFSET 0.000000 18.430702 -3.123100
					CHANNELS 3 Xrotation Yrotation Zrotation
					JOINT Head
					{
						OFFSET 0.000000 9.051102 1.034000
						CHANNELS 3 Xrotation Yrotation Zrotation
						JOINT HairB
						{
							OFFSET 0.208400 24.786102 24.822300
							CHANNELS 3 Xrotation Yrotation Zrotation
							End Site
							{
								OFFSET 0.000000 32.263779 0.000000
							}
						}
						JOINT HairA
						{
							OFFSET -7.081100 24.428299 23.196600
							CHANNELS 3 Xrotation Yrotation Zrotation
							End Site
							{
								OFFSET 0.000000 32.263779 0.000000
							}
						}
						JOINT Hat
						{
							OFFSET 16.728800 15.048294 -15.439601
							CHANNELS 3 Xrotation Yrotation Zrotation
							End Site
							{
								OFFSET 0.000000 32.263779 0.000000
							}
						}
					}
				}
				JOINT LeftShoulder
				{
					OFFSET 6.197800 13.665199 -4.064700
					CHANNELS 3 Xrotation Yrotation Zrotation
					JOINT LeftArm
					{
						OFFSET 7.778100 -0.187103 -1.709300
						CHANNELS 3 Xrotation Yrotation Zrotation
						JOINT LeftForeArm
						{
							OFFSET 22.049376 0.000000 0.000000
							CHANNELS 3 Xrotation Yrotation Zrotation
							JOINT LeftHand
							{
								OFFSET 23.009392 0.000000 0.000000
								CHANNELS 3 Xrotation Yrotation Zrotation
								JOINT LeftHandThumb1
								{
									OFFSET 3.507191 -2.063065 3.133727
									CHANNELS 3 Xrotation Yrotation Zrotation
									JOINT LeftHandThumb2
									{
										OFFSET 3.101337 -1.790558 1.790558
										CHANNELS 3 Xrotation Yrotation Zrotation
										JOINT LeftHandThumb3
										{
											OFFSET 3.058640 -1.765907 1.765906
											CHANNELS 3 Xrotation Yrotation Zrotation
											End Site
											{
												OFFSET -0.415260 3.926476 -0.049563
											}
										}
									}
								}
								JOINT LeftHandIndex1
								{
									OFFSET 11.334419 -0.901459 3.706815
									CHANNELS 3 Xrotation Yrotation Zrotation
									JOINT LeftHandIndex2
									{
										OFFSET 3.283112 0.000000 0.000000
										CHANNELS 3 Xrotation Yrotation Zrotation
										JOINT LeftHandIndex3
										{
											OFFSET 3.323853 0.000000 0.000000
											CHANNELS 3 Xrotation Yrotation Zrotation
											End Site
											{
												OFFSET -1.135597 3.097809 0.402452
											}
										}
									}
								}
								JOINT LeftHandMiddle1
								{
									OFFSET 11.335861 0.000000 0.000000
									CHANNELS 3 Xrotation Yrotation Zrotation
									JOINT LeftHandMiddle2
									{
										OFFSET 3.410492 0.000000 0.000000
										CHANNELS 3 Xrotation Yrotation Zrotation
										JOINT LeftHandMiddle3
										{
											OFFSET 3.312172 0.000000 0.000000
											CHANNELS 3 Xrotation Yrotation Zrotation
											End Site
											{
												OFFSET -1.150200 3.080154 0.400270
											}
										}
									}
								}
								JOINT LeftHandRing1
								{
									OFFSET 11.514786 -0.013176 -3.003090
									CHANNELS 3 Xrotation Yrotation Zrotation
									JOINT LeftHandRing2
									{
										OFFSET 3.053307 0.000000 0.000000
										CHANNELS 3 Xrotation Yrotation Zrotation
										JOINT LeftHandRing3
										{
											OFFSET 3.295807 0.000000 0.000000
											CHANNELS 3 Xrotation Yrotation Zrotation
											End Site
											{
												OFFSET -1.281006 3.013344 0.375733
											}
										}
									}
								}
								JOINT LeftHandPinky1
								{
									OFFSET 10.518692 -0.960396 -5.730441
									CHANNELS 3 Xrotation Yrotation Zrotation
									JOINT LeftHandPinky2
									{
										OFFSET 2.861649 0.000000 0.000000
										CHANNELS 3 Xrotation Yrotation Zrotation
										JOINT LeftHandPinky3
										{
											OFFSET 2.863380 0.000000 0.000000
											CHANNELS 3 Xrotation Yrotation Zrotation
											End Site
											{
												OFFSET -0.843597 2.711159 0.369971
											}
										}
									}
								}
							}
							JOINT LSleeve
							{
								OFFSET 6.676277 -0.344902 -1.011730
								CHANNELS 3 Xrotation Yrotation Zrotation
								End Site
								{
									OFFSET 0.000000 14.885353 0.000000
								}
							}
						}
					}
				}
				JOINT RightShoulder
				{
					OFFSET -6.197800 13.665199 -4.064700
					CHANNELS 3 Xrotation Yrotation Zrotation
					JOINT RightArm
					{
						OFFSET -7.778100 -0.187103 -1.709300
						CHANNELS 3 Xrotation Yrotation Zrotation
						JOINT RightForeArm
						{
							OFFSET -22.049376 0.000000 0.000000
							CHANNELS 3 Xrotation Yrotation Zrotation
							JOINT RightHand
							{
								OFFSET -23.009392 0.000000 0.000000
								CHANNELS 3 Xrotation Yrotation Zrotation
								JOINT RightHandThumb1
								{
									OFFSET -3.507191 -2.063065 3.133727
									CHANNELS 3 Xrotation Yrotation Zrotation
									JOINT RightHandThumb2
									{
										OFFSET -3.101337 -1.790558 1.790558
										CHANNELS 3 Xrotation Yrotation Zrotation
										JOINT RightHandThumb3
										{
											OFFSET -3.058640 -1.765907 1.765906
											CHANNELS 3 Xrotation Yrotation Zrotation
											End Site
											{
												OFFSET 0.415260 3.926476 -0.049563
											}
										}
									}
								}
								JOINT RightHandIndex1
								{
									OFFSET -11.334419 -0.901459 3.706815
									CHANNELS 3 Xrotation Yrotation Zrotation
									JOINT RightHandIndex2
									{
										OFFSET -3.283112 0.000000 0.000000
										CHANNELS 3 Xrotation Yrotation Zrotation
										JOINT RightHandIndex3
										{
											OFFSET -3.323853 0.000000 0.000000
											CHANNELS 3 Xrotation Yrotation Zrotation
											End Site
											{
												OFFSET 1.135597 3.097809 0.402452
											}
										}
									}
								}
								JOINT RightHandMiddle1
								{
									OFFSET -11.335861 0.000000 0.000000
									CHANNELS 3 Xrotation Yrotation Zrotation
									JOINT RightHandMiddle2
									{
										OFFSET -3.410492 0.000000 0.000000
										CHANNELS 3 Xrotation Yrotation Zrotation
										JOINT RightHandMiddle3
										{
											OFFSET -3.312172 0.000000 0.000000
											CHANNELS 3 Xrotation Yrotation Zrotation
											End Site
											{
												OFFSET 1.150200 3.080154 0.400270
											}
										}
									}
								}
								JOINT RightHandRing1
								{
									OFFSET -11.514786 -0.013176 -3.003090
									CHANNELS 3 Xrotation Yrotation Zrotation
									JOINT RightHandRing2
									{
										OFFSET -3.053307 0.000000 0.000000
										CHANNELS 3 Xrotation Yrotation Zrotation
										JOINT RightHandRing3
										{
											OFFSET -3.295807 0.000000 0.000000
											CHANNELS 3 Xrotation Yrotation Zrotation
											End Site
											{
												OFFSET 1.281006 3.013344 0.375733
											}
										}
									}
								}
								JOINT RightHandPinky1
								{
									OFFSET -10.518692 -0.960396 -5.730441
									CHANNELS 3 Xrotation Yrotation Zrotation
									JOINT RightHandPinky2
									{
										OFFSET -2.861649 0.000000 0.000000
										CHANNELS 3 Xrotation Yrotation Zrotation
										JOINT RightHandPinky3
										{
											OFFSET -2.863380 0.000000 0.000000
											CHANNELS 3 Xrotation Yrotation Zrotation
											End Site
											{
												OFFSET 0.843597 2.711159 0.369971
											}
										}
									}
								}
							}
							JOINT RSleeve
							{
								OFFSET -6.676277 -0.344902 -1.011730
								CHANNELS 3 Xrotation Yrotation Zrotation
								End Site
								{
									OFFSET 0.000000 14.885353 0.000000
								}
							}
						}
					}
				}
				JOINT Backpack
				{
					OFFSET 0.000000 -2.471497 36.677502
					CHANNELS 3 Xrotation Yrotation Zrotation
					End Site
					{
						OFFSET 0.000000 20.427315 0.000000
					}
				}
				JOINT Hood
				{
					OFFSET 0.000000 18.754097 -10.431000
					CHANNELS 3 Xrotation Yrotation Zrotation
					JOINT Hood1
					{
						OFFSET 0.000000 -5.011002 -7.685901
						CHANNELS 3 Xrotation Yrotation Zrotation
						End Site
						{
							OFFSET 0.000000 9.175140 0.000000
						}
					}
				}
				JOINT LHoodieString
				{
					OFFSET 5.250500 16.397697 3.089900
					CHANNELS 3 Xrotation Yrotation Zrotation
					JOINT LHoodieString1
					{
						OFFSET 0.257700 -6.364304 3.694600
						CHANNELS 3 Xrotation Yrotation Zrotation
						JOINT LHoodieString2
						{
							OFFSET 0.000000 -9.643799 2.679100
							CHANNELS 3 Xrotation Yrotation Zrotation
							End Site
							{
								OFFSET 0.000000 10.009018 0.000000
							}
						}
					}
				}
				JOINT RHoodieString
				{
					OFFSET -5.250500 16.397697 3.089900
					CHANNELS 3 Xrotation Yrotation Zrotation
					JOINT RHoodieString1
					{
						OFFSET -0.257700 -6.364304 3.694600
						CHANNELS 3 Xrotation Yrotation Zrotation
						JOINT RHoodieString2
						{
							OFFSET 0.000000 -9.643799 2.679100
							CHANNELS 3 Xrotation Yrotation Zrotation
							End Site
							{
								OFFSET 0.000000 10.009018 0.000000
							}
						}
					}
				}
			}
			JOINT LBackpack_Strap
			{
				OFFSET 15.223200 -7.719803 -6.610900
				CHANNELS 3 Xrotation Yrotation Zrotation
				End Site
				{
					OFFSET 0.000000 16.040596 0.000000
				}
			}
			JOINT RBackpack_Strap
			{
				OFFSET -15.223000 -7.719803 -6.610900
				CHANNELS 3 Xrotation Yrotation Zrotation
				End Site
				{
					OFFSET 0.000000 16.040596 0.000000
				}
			}
		}
	}
	JOINT BoyFacialAnim_Joint
	{
		OFFSET 1.000000 -82.208099 -1.550900
		CHANNELS 3 Xrotation Yrotation Zrotation
		End Site
		{
			OFFSET 0.000000 30.012791 0.000000
		}
	}
}
MOTION
Frames: 4
Frame Time: 0.016667
-27.551239 80.985886 -26.366995 4.585620 0.644099 -1.742992 -0.000000 -0.000000 -0.000000 -44.153768 -0.231073 9.358726 49.266991 8.583230 0.933527 13.745672 12.777155 -4.212462 -0.000002 0.000002 -0.000001 -0.000002 0.000002 -0.000001 0.000001 -0.000002 0.000000 -3.351968 -11.754075 -7.230315 24.397000 -8.367239 -0.524253 -9.179206 -3.760429 14.222673 -0.000000 0.000001 0.000000 -0.000000 0.000001 0.000000 0.000001 -0.000000 -0.000001 1.763250 1.016351 -5.403247 2.669527 2.765866 -1.144403 2.711151 2.741216 -1.111868 -0.169237 1.518459 2.033062 -4.044500 8.985413 5.077304 0.000000 0.000002 -0.000000 0.000000 0.000002 -0.000000 0.000000 0.000002 -0.000000 1.433978 -4.062821 -11.219142 -3.341571 24.380987 -39.671296 0.000040 -68.585857 0.000029 0.243784 -28.052570 -0.273007 -1.540049 3.690191 6.142351 3.946767 7.971402 0.752851 -0.000001 -0.000001 -0.000000 -0.000001 0.000005 -0.000000 -0.000005 0.000009 0.000007 -0.000001 0.000001 -0.000002 -0.000002 -0.001917 0.015983 0.000003 0.001915 -0.015994 -0.000003 -0.000003 0.000005 -0.000003 0.000002 -0.000000 -0.000003 0.000005 -0.000006 -0.000004 -0.000002 0.000001 -0.018088 4.054258 0.511069 -0.018089 -4.054250 -0.511069 0.000003 -0.000001 -0.000000 -0.000000 0.000005 0.000001 0.748684 -2.655727 10.687282 -17.948788 -16.241857 40.821264 -0.000003 12.072947 -0.000001 3.899472 8.202189 6.283316 -1.849255 -3.581793 -6.586141 4.645037 -8.656802 -0.231325 -0.000001 -0.000000 -0.000004 0.000001 -0.000002 -0.000009 -0.000001 0.000006 0.000013 -0.000002 -0.000001 -0.000000 0.000001 -0.000004 -0.000002 -0.000000 0.000006 0.000092 0.000000 0.000001 -0.000002 0.000003 -0.000004 -0.000000 0.000005 0.000012 0.000042 -0.000001 0.000000 0.000002 0.000002 -0.000003 -0.000003 0.000003 0.000006 0.000071 0.000001 -0.000003 -0.000000 0.000001 0.000001 -0.000004 0.000000 0.000001 0.000001 0.000000 0.000001 0.000001 0.000000 0.000001 0.000001 0.000000 0.000001 0.000001 0.000000 0.000001 0.000001 0.000001 0.000001 0.000001 0.000000 0.000001 0.000001 0.000000 0.000001 0.000001 0.000001 0.000001 0.000001 -0.000000 -0.000000 0.000000 -0.000000 -0.000000 0.000000 -0.000000 -0.000000 -0.000000 
-27.260681 81.283691 -26.383699 4.763768 -0.161109 -1.533188 -0.000000 0.000000 0.000000 -42.317052 -0.351665 10.839268 50.378000 8.637247 1.023072 13.977869 14.922824 -1.680525 0.000002 0.000000 -0.000001 0.000002 0.000000 -0.000001 -0.000000 -0.000001 0.000000 -3.562675 -11.555750 -8.201596 23.486090 -7.092606 -0.536339 -7.996201 -2.694643 14.953748 0.000000 0.000002 0.000000 0.000000 0.000002 0.000000 0.000000 -0.000002 0.000002 1.586026 1.412629 -5.653519 2.374024 3.259592 -1.400063 2.430398 3.238701 -1.364457 -0.224070 1.432987 2.227389 -4.033166 8.722014 5.409510 0.000001 -0.000000 -0.000000 0.000001 -0.000000 -0.000000 0.000001 -0.000000 -0.000000 1.467532 -4.240643 -11.592417 5.654172 26.367474 -43.866815 0.000017 -67.796731 0.000021 0.073307 -29.850225 1.113499 -1.540052 3.690193 6.142349 3.946769 7.971399 0.752851 -0.000002 -0.000001 -0.000000 -0.000004 0.000007 -0.000001 -0.000008 0.000006 -0.000004 -0.000003 0.000000 -0.000002 -0.000005 -0.001915 0.015983 0.000003 0.001914 -0.015990 0.000001 0.000000 0.000002 -0.000006 0.000005 -0.000007 0.000001 0.000000 -0.000005 -0.000004 0.000001 0.000001 -0.018093 4.054261 0.511071 -0.018091 -4.054252 -0.511063 -0.000006 0.000001 0.000002 0.000002 0.000001 0.000003 0.734773 -2.719270 10.596598 -18.801310 -15.324281 39.607058 0.000001 12.657100 -0.000005 3.908930 3.805294 10.426489 -1.849257 -3.581788 -6.586119 4.645039 -8.656802 -0.231336 -0.000000 0.000000 0.000001 -0.000003 0.000000 0.000015 -0.000003 0.000006 0.000012 -0.000001 0.000001 0.000005 -0.000001 -0.000001 0.000008 0.000000 0.000007 0.000094 -0.000000 0.000000 -0.000000 -0.000002 0.000004 0.000006 0.000006 0.000011 0.000044 -0.000000 -0.000001 0.000002 -0.000004 -0.000000 -0.000003 0.000002 0.000005 0.000068 -0.000000 -0.000001 0.000005 0.000001 -0.000000 0.000000 -0.000000 0.000000 0.000001 -0.000000 0.000000 0.000001 -0.000000 0.000000 0.000001 -0.000000 0.000000 0.000001 -0.000000 0.000000 0.000001 -0.000001 -0.000001 0.000001 -0.000000 0.000000 0.000001 -0.000000 0.000000 0.000001 -0.000001 -0.000001 0.000001 0.000001 0.000000 -0.000000 0.000001 0.000000 -0.000000 -0.000000 0.000000 0.000000 
-26.944826 81.543945 -26.362617 5.089682 -0.824172 -1.371562 -0.000000 0.000000 0.000000 -40.173342 -0.435799 12.461708 50.335496 8.655966 1.123415 14.008392 17.221608 0.196905 0.000001 -0.000002 0.000000 0.000001 -0.000002 -0.000000 -0.000001 0.000001 0.000001 -3.781741 -11.367553 -9.106825 22.476052 -5.558574 -0.478770 -6.883963 -1.868017 15.688970 -0.000000 0.000003 -0.000001 -0.000000 0.000003 -0.000001 0.000001 0.000002 -0.000000 1.384000 1.766168 -5.832069 2.032630 3.712427 -1.607211 2.103378 3.696492 -1.570154 -0.275676 1.345611 2.361038 -3.983147 8.395972 5.665071 -0.000000 0.000002 -0.000000 -0.000000 0.000002 -0.000000 -0.000000 0.000002 -0.000000 1.481607 -4.316641 -11.747589 12.772036 27.916450 -48.290879 0.000006 -66.123970 -0.000000 0.079347 -30.831597 0.943926 -1.540049 3.690186 6.142350 3.946766 7.971399 0.752848 0.000001 -0.000003 0.000002 -0.000005 0.000003 0.000004 -0.000005 0.000002 0.000000 -0.000000 -0.000001 -0.000000 -0.000007 -0.001917 0.015981 -0.000002 0.001916 -0.015983 0.000000 0.000000 0.000004 -0.000005 -0.000003 -0.000003 -0.000002 0.000002 -0.000001 -0.000001 0.000003 -0.000002 -0.018089 4.054256 0.511072 -0.018090 -4.054248 -0.511060 -0.000001 0.000000 -0.000002 -0.000001 0.000001 -0.000004 0.715792 -2.807281 10.472896 -19.463264 -14.733592 38.616667 -0.000009 13.178800 0.000022 4.426772 0.064402 14.071440 -1.849256 -3.581784 -6.586139 4.645038 -8.656800 -0.231330 -0.000000 0.000000 -0.000002 -0.000000 -0.000001 0.000010 -0.000001 0.000006 0.000015 -0.000001 -0.000000 0.000005 0.000001 -0.000003 0.000013 0.000001 0.000008 0.000091 -0.000000 -0.000001 0.000003 -0.000001 -0.000002 0.000005 0.000006 0.000013 0.000042 -0.000000 0.000003 0.000001 -0.000001 -0.000004 0.000004 -0.000000 0.000005 0.000062 0.000002 0.000002 -0.000001 -0.000000 0.000000 -0.000001 0.000000 -0.000001 0.000000 0.000000 -0.000001 0.000000 0.000000 -0.000001 0.000000 0.000000 -0.000001 0.000000 0.000000 -0.000001 0.000000 0.000000 0.000001 -0.000001 0.000000 -0.000001 0.000000 0.000000 -0.000001 0.000000 0.000000 0.000001 -0.000001 -0.000000 0.000000 0.000000 -0.000000 0.000000 0.000000 -0.000000 0.000000 0.000000 
-26.603371 81.757965 -26.321819 5.521411 -1.263625 -1.270143 -0.000000 0.000000 0.000000 -37.790323 -0.428452 14.167500 49.206530 8.666629 1.228301 13.693387 19.593637 1.681913 0.000000 0.000001 -0.000000 0.000000 0.000001 -0.000002 0.000001 0.000001 0.000002 -3.930862 -11.181885 -9.873268 21.343849 -3.660301 -0.342332 -5.885084 -1.577776 16.336822 0.000000 -0.000001 -0.000000 0.000000 -0.000001 -0.000000 0.000001 0.000001 0.000000 1.171076 2.071763 -5.921710 1.667892 4.119297 -1.757988 1.751484 4.109059 -1.720882 -0.329438 1.250088 2.443574 -3.904388 7.989615 5.840143 0.000001 -0.000001 -0.000000 0.000001 -0.000001 -0.000000 0.000001 -0.000001 -0.000000 1.475785 -4.286669 -11.679664 17.858436 29.300364 -52.334368 -0.000004 -63.835289 -0.000007 0.424018 -30.787160 -0.397682 -1.540048 3.690195 6.142348 3.946761 7.971400 0.752849 -0.000002 0.000002 0.000001 -0.000002 0.000007 0.000000 -0.000005 0.000004 -0.000001 0.000003 0.000000 0.000002 -0.000003 -0.001916 0.015987 0.000001 0.001914 -0.015989 -0.000001 0.000002 -0.000003 -0.000003 0.000004 -0.000005 -0.000005 0.000004 -0.000003 0.000001 -0.000002 -0.000002 -0.018090 4.054262 0.511073 -0.018090 -4.054253 -0.511067 -0.000004 -0.000001 0.000003 0.000000 0.000004 -0.000003 0.694853 -2.907719 10.339740 -19.916138 -14.501851 37.786755 0.000005 13.690953 -0.000011 5.062890 -2.860964 16.812053 -1.849255 -3.581787 -6.586135 4.645040 -8.656802 -0.231329 -0.000000 0.000001 -0.000001 -0.000000 -0.000001 -0.000007 -0.000003 0.000002 0.000020 -0.000001 0.000001 0.000000 0.000002 0.000000 -0.000011 -0.000000 0.000007 0.000092 -0.000001 0.000000 -0.000000 0.000001 0.000004 -0.000008 0.000006 0.000013 0.000041 -0.000000 -0.000001 0.000006 -0.000001 -0.000000 -0.000008 0.000001 0.000005 0.000069 -0.000001 -0.000000 0.000002 0.000000 -0.000001 -0.000000 -0.000000 0.000001 0.000000 -0.000000 0.000001 0.000000 -0.000000 0.000001 0.000000 -0.000000 0.000001 0.000000 -0.000000 0.000001 0.000000 -0.000001 0.000001 0.000000 -0.000000 0.000001 0.000000 -0.000000 0.000001 0.000000 -0.000001 0.000001 0.000000 0.000000 0.000000 -0.000001 0.000000 0.000000 -0.000001 -0.000000 0.000000 0.000000 
